<svg width="65" height="53" viewBox="0 0 65 53" fill="none" xmlns="http://www.w3.org/2000/svg">
<path fill-rule="evenodd" clip-rule="evenodd" d="M60.199 37.22C60.4705 37.1704 60.7468 37.1451 61.0265 37.1451C62.1471 37.1451 63.1933 37.5538 63.9559 38.3869C64.6663 39.1628 65.0029 40.1502 65 41.1949C64.9985 41.7148 64.9003 42.2338 64.8032 42.7428L63.7022 48.5146H52.4503C52.1166 48.5967 51.7761 48.6445 51.433 48.6589L51.3211 48.7313C47.6741 51.0904 43.4344 52.3159 39.094 52.3159C33.8448 52.3159 28.761 50.5148 24.7392 47.1693C20.3735 52.8319 10.4096 53.7099 4.67368 49.8671C1.46241 47.7158 0.113421 45.0552 0.00427821 41.218C-0.086212 38.0374 1.26409 35.2942 3.55165 33.138C3.86617 32.8415 4.1937 32.56 4.53151 32.291C3.8393 31.7058 3.21983 31.0438 2.71183 30.2807C0.400673 26.8088 0.385954 22.1721 2.69797 18.7167V2.79452L4.27214 2.10629C9.32014 -0.100206 14.7285 -0.962907 19.8751 1.44968C20.8745 1.77922 21.9167 2.25677 22.9453 2.43997L25.1117 2.82583V3.90172C25.3072 3.88942 25.5023 3.87183 25.6967 3.84885L28.6312 3.50215V5.04709C28.7688 5.00565 28.9054 4.96064 29.0408 4.91189L32.5557 3.64749V10.4283C34.6739 9.7918 36.8792 9.46917 39.094 9.46917C47.8638 9.46917 55.8937 14.6852 59.4236 22.7175C61.4598 27.3512 61.7367 32.4446 60.199 37.22V37.22ZM44.9113 39.039C43.9159 39.4177 44.3749 37.823 43.2617 37.823C41.2434 37.823 37.536 38.5577 35.923 37.3389C35.4142 37.6775 34.7718 38.5336 34.1752 38.7122C32.8129 39.1205 31.2853 39.1837 29.869 39.1837L28.6875 38.6743C31.4087 42.2288 36.2129 46.8288 40.438 45.1305C40.8564 45.1305 41.275 45.1097 41.6911 45.0681L42.3467 41.2118L44.1034 41.6466L44.9113 39.039ZM47.6085 20.4521C40.4816 13.0263 36.5265 14.8051 29.9392 21.3631L35.8777 22.0829V22.3907C37.0064 21.8707 38.2297 21.6213 39.4923 21.6213C41.3827 21.6213 43.1748 22.1315 44.686 23.2397C45.4422 22.6719 46.7097 20.7069 47.6085 20.4521V20.4521ZM12.3475 26.8458L14.8664 28.5442C15.3868 27.7039 15.751 26.7371 15.9679 25.8057C16.6777 22.758 16.1679 18.4545 12.0211 19.2294C10.9552 19.4285 10.4859 19.6941 9.91787 20.6245C9.51306 21.2879 9.52374 23.1667 9.81956 23.8746C10.5808 25.6977 10.8885 25.6543 12.3475 26.8458ZM10.9435 34.2298C10.3196 34.8563 9.87114 35.5422 9.298 36.3001C8.949 36.7621 8.33184 38.699 8.28854 39.2874C8.18721 40.6582 8.21464 42.8451 8.71509 44.13C8.78466 44.309 8.85941 44.4862 8.93987 44.6607L11.3209 45.7282C12.8709 46.2702 14.556 45.9761 15.9007 45.0528C16.6868 44.5132 17.0923 43.6611 17.4626 42.8128C18.3825 40.7062 16.6224 38.3666 15.3118 36.887C14.8281 36.3619 12.7849 35.2686 12.0895 34.8883C11.7029 34.6769 11.3246 34.4508 10.9435 34.2298V34.2298Z" fill="#E9E9E9"/>
<path fill-rule="evenodd" clip-rule="evenodd" d="M27.773 6.12791C28.3007 6.03712 28.8196 5.90266 29.3302 5.71871L31.6976 4.86731V11.6138C34.039 10.7707 36.5408 10.3267 39.0933 10.3267C53.5622 10.3267 64.2486 24.7537 58.946 38.1743C59.1029 38.2261 59.2556 38.291 59.4018 38.3688C59.9107 38.1306 60.4572 38.0026 61.0256 38.0026C61.906 38.0026 62.7232 38.3116 63.3228 38.9661C63.8865 39.5823 64.1442 40.363 64.1418 41.1925C64.1408 41.6419 64.0445 42.1407 63.9602 42.5823L62.9921 47.6572H52.3405C51.976 47.7563 51.5975 47.8064 51.2083 47.8064C51.1959 47.8064 51.1842 47.8064 51.1718 47.8064L50.8546 48.0116C47.3457 50.2805 43.269 51.4586 39.0933 51.4586C33.7117 51.4586 28.536 49.494 24.5814 45.8966C20.8673 51.8242 10.8 52.9397 5.15018 49.1549C2.17373 47.1608 0.962023 44.758 0.860644 41.1937C0.776909 38.2467 2.0281 35.752 4.13896 33.7621C4.7062 33.2278 5.31467 32.7473 5.95088 32.3016C4.97091 31.6152 4.09177 30.8074 3.42491 29.8057C1.21615 26.4878 1.33407 22.1098 3.55463 18.9836V3.35549L4.6148 2.89204C9.4385 0.783546 14.6261 -0.0843996 19.5571 2.24818C20.6079 2.58957 21.727 3.0943 22.7942 3.28415L24.2535 3.54418V4.78003C24.7688 4.78653 25.2836 4.76057 25.7965 4.70043L27.773 4.46692V6.12791ZM43.2047 38.1524C43.1664 38.1124 43.1287 38.0711 43.0921 38.0298C43.0544 38.0711 43.0155 38.1124 42.976 38.1524H43.2047ZM42.8639 38.2644C42.8397 38.288 42.815 38.3116 42.7902 38.3346C41.9317 39.1389 40.8616 39.5298 39.6876 39.5298C38.5797 39.5298 37.5254 39.2338 36.6528 38.5345C36.5095 38.4201 36.3757 38.2981 36.2507 38.1701C35.8998 38.531 35.4659 38.8034 34.9529 38.9573C34.2047 39.1813 33.2996 39.2144 32.5213 39.2144H30.4959C32.3291 42.3229 35.2413 44.6271 39.0933 44.6271C39.6033 44.6271 40.1115 44.5823 40.6127 44.4927L40.9707 42.3871L42.0497 42.6543L42.8639 38.2644ZM46.3781 20.713C44.578 18.5868 42.1275 17.1575 39.0933 17.1575C35.9287 17.1575 33.3986 18.7124 31.5796 20.9913H36.4276V21.937C36.6416 21.7342 36.8763 21.5514 37.131 21.3899C37.8804 20.9152 38.7265 20.6941 39.6122 20.6941C40.7525 20.6941 41.825 21.0231 42.7012 21.7696C42.7949 21.8492 42.8852 21.9317 42.9713 22.0172C43.8563 21.0532 45.1069 20.716 46.3781 20.713ZM12.0488 26.4082L14.2911 27.92C14.3053 27.9283 14.3189 27.936 14.3324 27.9442C14.3407 27.9347 14.349 27.9253 14.3572 27.9165C16.6497 25.3492 16.5607 19.3002 12.1997 20.1151C11.2847 20.2861 10.7911 20.5968 10.3106 21.3834C9.91258 22.0361 9.8955 23.4872 10.1897 24.1924C10.7528 25.5403 10.9792 25.5297 12.0488 26.4082ZM9.73513 43.7097L11.5871 44.5399C12.8625 44.9998 14.2428 44.7757 15.3525 44.0139C16.0146 43.5593 16.3501 42.9178 16.6626 42.202C17.4209 40.4661 16.2357 38.7096 15.1173 37.4472C14.7375 37.0351 13.3378 36.2697 12.8147 35.9838C12.4792 35.8004 11.9857 35.495 11.5512 35.2668C10.8024 35.8476 10.5087 36.3464 9.91495 37.1318C9.58828 37.564 9.1319 38.9661 9.09122 39.5168C9.01575 40.5398 9.05114 42.0658 9.42318 43.0216C9.51755 43.2633 9.6213 43.4933 9.73513 43.7097Z" fill="#0428A6"/>
<path fill-rule="evenodd" clip-rule="evenodd" d="M39.0935 12.0955C52.9758 12.0955 62.9866 26.5091 56.5637 39.1611H54.2958L54.0946 40.2414C54.031 40.1437 53.9609 40.0493 53.8838 39.9584C53.3364 39.3132 52.5954 39.0116 51.7541 39.0116C50.9643 39.0116 50.2706 39.2263 49.694 39.6443L49.784 39.1611H49.7742C51.0054 36.768 51.7183 33.9328 51.7183 30.8928C51.7183 22.3302 46.066 15.389 39.0935 15.389C32.1209 15.389 26.4686 22.3302 26.4686 30.8928C26.4686 39.4553 32.1209 46.3965 39.0935 46.3965C39.8655 46.3965 40.6213 46.311 41.355 46.148L41.3047 46.4441L41.9742 46.6228C42.329 46.7175 42.7155 46.798 43.0841 46.798C43.7112 46.798 44.3125 46.63 44.7748 46.1897C45.2459 45.7409 45.4712 45.087 45.5877 44.462L45.6464 44.147C45.7442 44.074 45.8408 43.9991 45.9367 43.9229L45.4289 46.6485H48.3892L48.619 45.4147C48.7012 45.54 48.7931 45.661 48.8953 45.7772C49.1865 46.1082 49.5225 46.3573 49.8944 46.5264C46.805 48.5244 43.0901 49.69 39.0935 49.69C33.3992 49.69 28.2766 47.3247 24.7197 43.5555C24.9927 42.9597 25.1874 42.3157 25.2885 41.6231C25.9013 37.4258 23.971 34.4953 20.7461 32.533C20.3033 32.2635 20.0641 32.0789 19.6691 31.8523C19.1643 31.6159 18.3686 31.277 18.4394 30.8387C18.6113 29.7744 24.9591 26.4667 22.6407 20.8657C26.0859 15.5958 32.1665 12.0955 39.0935 12.0955V12.0955Z" fill="#E9E9E9"/>
<path fill-rule="evenodd" clip-rule="evenodd" d="M9.05222 32.3678C8.25026 33.1241 2.46918 35.5223 2.62924 41.1439C2.7165 44.2093 3.6939 46.0505 6.13486 47.686C11.8946 51.545 22.9452 49.4836 24.1297 42.1478C24.8223 37.8585 22.9477 34.8638 19.7602 32.8585C19.2082 32.5113 18.9776 32.302 18.3525 31.9706C18.1098 31.842 17.8908 31.6948 17.6606 31.5583C17.3783 31.3907 17.1833 31.3303 16.8916 31.1669C16.948 30.8328 17.269 30.7258 17.8206 30.3269C20.8758 28.118 23.5693 24.6218 21.7066 20.5309C20.3318 17.5117 15.6978 16.0818 12.4712 16.439C10.1182 16.6995 8.87563 16.8193 6.80923 18.2304C3.27306 20.6451 2.69427 25.5163 4.89719 28.8251C6.11621 30.656 8.19249 31.5401 8.80258 32.0341C9.12784 32.2975 8.9394 32.0436 9.05222 32.3678V32.3678ZM11.8753 18.3766C10.3529 18.6611 9.48567 19.3413 8.80142 20.4621C8.15756 21.5167 8.00097 23.5402 8.55808 24.8741C9.29873 26.6476 9.70173 26.7592 10.9891 27.8269L13.3574 29.4241C14.787 30.2214 14.4559 30.4623 15.6769 29.0945C19.3337 24.9985 17.7795 17.2735 11.8753 18.3766V18.3766ZM18.0744 37.6755C18.1144 38.0502 18.3481 38.2325 18.5231 38.5621C21.2702 43.7372 16.7664 49.1427 11.0107 46.7142C10.7066 46.5859 10.4174 46.3732 10.1657 46.2007C9.84259 45.9793 9.53195 45.8341 9.40108 45.4982L10.9193 46.1795C12.8181 46.8904 14.8099 46.5325 16.3541 45.4722C17.3522 44.7868 17.8572 43.8863 18.2836 42.9104C19.3628 40.4405 18.0488 38.0877 16.4398 36.273C15.9259 35.6933 14.4098 34.8399 13.6642 34.4319C11.1328 33.0465 11.489 33.1177 10.6617 33.7225C9.54102 34.5419 9.24812 35.0817 8.50434 36.0653C8.01947 36.7067 7.40016 38.3984 7.32736 39.3867C7.22477 40.7783 7.32111 42.4974 7.77518 43.6637C8.67564 45.9765 10.3767 47.5323 12.9825 47.6811C15.8656 47.8456 17.9904 46.551 18.9778 44.6732C19.8585 42.9982 19.8521 40.9593 18.9747 39.0116C18.6381 38.2643 18.3955 38.1509 18.0743 37.6755H18.0744Z" fill="#E9E9E9"/>
<path fill-rule="evenodd" clip-rule="evenodd" d="M35.643 34.0109C35.643 35.1032 35.5438 35.8891 35.3453 36.3656C35.149 36.8452 34.847 37.1423 34.4457 37.2629C34.0423 37.3836 33.4016 37.4455 32.5215 37.4455H29.4429V22.7603H34.6593V25.3039H32.1094V27.7916H32.5215C33.3412 27.7916 33.9647 27.8596 34.3853 27.9988C34.806 28.1381 35.121 28.4445 35.3302 28.921C35.5394 29.3944 35.643 30.1401 35.643 31.155V34.0109ZM32.9766 33.5685V31.4459C32.9766 30.827 32.9335 30.4526 32.8472 30.3196C32.7609 30.1865 32.515 30.1122 32.1094 30.0936V34.9206C32.4481 34.9206 32.6768 34.8588 32.7954 34.7349C32.9162 34.6112 32.9766 34.2213 32.9766 33.5685ZM42.7988 29.1653H40.1324V26.6158C40.1324 25.8732 40.1043 25.4121 40.0482 25.2264C39.9921 25.0439 39.867 24.9511 39.675 24.9511C39.4593 24.9511 39.3212 25.0625 39.263 25.2853C39.2047 25.5111 39.1745 25.9938 39.1745 26.7364V33.5499C39.1745 34.2646 39.2047 34.7288 39.263 34.9485C39.3212 35.165 39.4528 35.2734 39.6556 35.2734C39.8519 35.2734 39.9813 35.165 40.0418 34.9454C40.1022 34.7288 40.1324 34.2151 40.1324 33.4075V31.5603H42.7988V32.1327C42.7988 33.6551 42.7233 34.7349 42.5744 35.3693C42.4256 36.0066 42.0933 36.5636 41.5821 37.0432C41.0687 37.5228 40.4387 37.7611 39.6879 37.7611C38.9092 37.7611 38.2664 37.56 37.7594 37.1546C37.2545 36.7493 36.918 36.1892 36.754 35.4714C36.5901 34.7536 36.5082 33.6767 36.5082 32.2379V27.9494C36.5082 26.8911 36.534 26.099 36.5836 25.5699C36.6354 25.0408 36.7843 24.5302 37.0367 24.0413C37.2869 23.5525 37.6342 23.1657 38.0786 22.8842C38.523 22.6026 39.0343 22.4634 39.6125 22.4634C40.3956 22.4634 41.0428 22.6799 41.5541 23.1162C42.0632 23.5494 42.3975 24.0909 42.5593 24.7407C42.719 25.3905 42.7988 26.3992 42.7988 27.7699V29.1653ZM48.4703 29.1376C48.8565 29.3263 49.1434 29.6326 49.3332 30.0565C49.5209 30.4835 49.6158 31.4829 49.6158 33.0548C49.6158 34.2213 49.5231 35.1279 49.3376 35.7715C49.1521 36.4151 48.8327 36.904 48.3776 37.2382C47.9224 37.5754 47.3399 37.7425 46.628 37.7425C45.8212 37.7425 45.1848 37.5476 44.7253 37.1577C44.2636 36.7679 43.9594 36.2883 43.8149 35.722C43.6704 35.1589 43.597 34.1749 43.597 32.7764V31.616H46.1469V34.0048C46.1469 34.6421 46.1728 35.0475 46.2268 35.2177C46.2785 35.391 46.3972 35.4776 46.5784 35.4776C46.7769 35.4776 46.9085 35.3693 46.971 35.1496C47.0336 34.933 47.0659 34.3637 47.0659 33.4447V32.4267C47.0659 31.8635 47.0228 31.452 46.9344 31.1921C46.8459 30.9322 46.7143 30.762 46.5417 30.6815C46.3692 30.5981 46.0348 30.5516 45.5386 30.5392V28.4042C46.1448 28.4042 46.518 28.3702 46.6625 28.3052C46.8049 28.2371 46.9085 28.0948 46.971 27.8689C47.0336 27.6461 47.0659 27.2965 47.0659 26.82V26.0062C47.0659 25.4926 47.0293 25.1553 46.9559 24.9913C46.8804 24.8273 46.7661 24.7469 46.6107 24.7469C46.4316 24.7469 46.3109 24.8335 46.2461 25.0037C46.1793 25.177 46.1469 25.5421 46.1469 26.1052V27.3089H43.597V26.0588C43.597 24.6571 43.8214 23.7134 44.2679 23.2214C44.7145 22.7295 45.4242 22.4819 46.3972 22.4819C47.6139 22.4819 48.4401 22.8223 48.8737 23.5061C49.3074 24.1899 49.5253 25.1398 49.5253 26.3527C49.5253 27.1758 49.4476 27.7699 49.2923 28.135C49.1347 28.5002 48.8608 28.8343 48.4703 29.1376Z" fill="#E9E9E9"/>
<path fill-rule="evenodd" clip-rule="evenodd" d="M44.356 39.9214H48.8689L47.7573 45.8882H46.3439L47.222 41.1745H45.4267L44.8402 44.3227C44.726 44.934 44.5299 45.3728 44.2503 45.6391C43.9707 45.9054 43.5819 46.0377 43.084 46.0377C42.8471 46.0377 42.5436 45.9878 42.1702 45.8882L42.3953 44.5622C42.5879 44.6101 42.7618 44.635 42.9187 44.635C43.1608 44.635 43.3313 44.543 43.4319 44.3572C43.5307 44.1732 43.6347 43.8034 43.7388 43.2478L44.356 39.9214ZM53.7778 43.4049H50.1753C50.1718 43.4681 50.1702 43.5179 50.1702 43.5524C50.1702 43.9529 50.2725 44.2748 50.4754 44.52C50.6782 44.7654 50.9272 44.888 51.2188 44.888C51.6996 44.888 52.0746 44.612 52.344 44.0602L53.6227 44.3017C53.3721 44.8803 53.038 45.3134 52.6186 45.6026C52.1991 45.892 51.7302 46.0377 51.2085 46.0377C50.4941 46.0377 49.9127 45.7828 49.4661 45.275C49.0176 44.7653 48.7943 44.0928 48.7943 43.2535C48.7943 42.4353 48.9955 41.7072 49.3995 41.0672C49.9485 40.203 50.7346 39.7719 51.7541 39.7719C52.4037 39.7719 52.9203 39.998 53.3039 40.4502C53.6874 40.9024 53.8785 41.5366 53.8785 42.351C53.8785 42.7419 53.8443 43.0926 53.7778 43.4049V43.4049ZM52.5691 42.4276C52.5726 42.3548 52.5742 42.3011 52.5742 42.2628C52.5742 41.8164 52.4855 41.4811 52.3083 41.2568C52.1326 41.0327 51.8956 40.9215 51.5973 40.9215C51.3006 40.9215 51.0346 41.048 50.7993 41.3029C50.564 41.5558 50.4055 41.9314 50.3219 42.4276H52.5691ZM54.9274 39.9214H56.2845L56.1618 40.6361C56.6886 40.0594 57.2427 39.7719 57.8224 39.7719C58.2231 39.7719 58.5317 39.8657 58.7482 40.0516C58.9664 40.2394 59.1046 40.4981 59.1642 40.8277C59.3483 40.5268 59.611 40.2778 59.9553 40.0747C60.2996 39.8734 60.656 39.7719 61.026 39.7719C61.4505 39.7719 61.7813 39.9022 62.0183 40.1608C62.2553 40.4196 62.3729 40.7607 62.3729 41.1879C62.3714 41.3929 62.3218 41.7474 62.2229 42.2513L61.529 45.8882H60.0969L60.7855 42.2513C60.8708 41.7954 60.9152 41.5347 60.9203 41.4734C60.9203 41.3029 60.8759 41.1687 60.7855 41.0691C60.6969 40.9714 60.5623 40.9215 60.3833 40.9215C60.0235 40.9215 59.7013 41.1343 59.4183 41.5615C59.2119 41.8662 59.0363 42.4085 58.8914 43.1845L58.3884 45.8882H56.9563L57.6281 42.2724C57.7048 41.8567 57.7423 41.5864 57.7423 41.4619C57.7423 41.3048 57.6945 41.1745 57.6008 41.0729C57.5053 40.9714 57.374 40.9215 57.2069 40.9215C57.0501 40.9215 56.8881 40.9752 56.7227 41.0806C56.5557 41.186 56.409 41.3297 56.2845 41.5156C56.1584 41.6995 56.0509 41.9371 55.9605 42.2264C55.9197 42.3625 55.8498 42.6691 55.756 43.1462L55.248 45.8882H53.8158L54.9274 39.9214Z" fill="#E9E9E9"/>
<path fill-rule="evenodd" clip-rule="evenodd" d="M22.6631 8.14779V10.4854C21.4637 10.3 20.2644 9.82436 19.0651 9.49385V7.15619C20.2644 7.48669 21.4637 7.96237 22.6631 8.14779Z" fill="#E9E9E9"/>
<path fill-rule="evenodd" clip-rule="evenodd" d="M22.6631 11.0141V13.8941C21.4637 13.6657 20.2644 13.0797 19.0651 12.6724V9.79254C20.2644 10.1997 21.4637 10.7857 22.6631 11.0141V11.0141Z" fill="#E9E9E9"/>
<path fill-rule="evenodd" clip-rule="evenodd" d="M22.6629 14.6125V17.2948C21.4638 17.0819 20.2643 16.5363 19.0653 16.1569V16.1523C13.9771 14.4808 9.42015 15.8273 5.4223 17.2098V4.59065C8.88563 3.07661 14.0209 1.53082 19.0653 3.97088V3.96736C20.2643 4.34681 21.4638 4.89242 22.6629 5.10526V7.78754C21.4638 7.5747 20.2643 7.0291 19.0653 6.64965L19.1211 4.56352C14.6229 2.30984 9.60456 3.27923 6.05745 4.99309L6.10756 16.3746C9.34263 15.2088 13.9502 13.9476 19.0599 15.5174L19.0653 13.4747C20.2643 13.8537 21.4638 14.3993 22.6629 14.6121V14.6125Z" fill="#E9E9E9"/>
<path fill-rule="evenodd" clip-rule="evenodd" d="M26.7274 8.31819C27.8655 8.26919 29.0035 8.07364 30.1417 7.66379V9.90961C29.0236 10.3366 27.8832 10.5301 26.7274 10.564V8.31819Z" fill="#E9E9E9"/>
<path fill-rule="evenodd" clip-rule="evenodd" d="M26.7274 10.9806C27.8655 10.9316 29.0035 10.736 30.1417 10.3262V12.5719C29.0236 12.9989 27.8832 13.1925 26.7274 13.2263V10.9806Z" fill="#E9E9E9"/>
<path fill-rule="evenodd" clip-rule="evenodd" d="M23.0646 6.55772C24.1401 6.66812 25.1847 6.66328 26.1984 6.54324V9.20327C25.1538 9.31892 24.1091 9.33847 23.0646 9.21773V6.55772Z" fill="#E9E9E9"/>
<path fill-rule="evenodd" clip-rule="evenodd" d="M23.0646 9.63902C24.1401 9.74942 25.1847 9.74464 26.1984 9.6246V12.2846C25.1538 12.4002 24.1091 12.4198 23.0646 12.299V9.63902Z" fill="#E9E9E9"/>
<path fill-rule="evenodd" clip-rule="evenodd" d="M23.0646 12.7204C24.1401 12.8308 25.1847 12.826 26.1984 12.706V15.366C25.1538 15.4816 24.1091 15.5012 23.0646 15.3804V12.7204Z" fill="#E9E9E9"/>
<path fill-rule="evenodd" clip-rule="evenodd" d="M17.4153 9.24135L16.141 9.26601V4.68332L8.30133 4.83472V8.50064L12.0256 8.4287C12.4043 8.42139 12.712 8.12891 12.712 7.77476V6.76596C12.712 6.41182 12.4043 6.13005 12.0256 6.13736L9.47715 6.18656V5.72878L15.1608 5.61903L12.9212 9.32816L8.98764 9.40413C8.98865 9.40413 8.98764 9.40413 8.98764 9.40413C8.60899 9.41144 8.30133 9.70514 8.30133 10.0592C8.30133 10.0592 8.30133 10.0592 8.30133 10.0603V13.3581C8.30133 13.3571 8.30133 13.3581 8.30133 13.3581C8.30133 13.7122 8.60899 13.994 8.98764 13.9867L8.98865 13.9866L17.1211 13.8296V12.9128L9.47689 13.0604V10.3113L12.3617 10.2556L11.2419 12.1096L12.3704 12.0878L13.4902 10.2338L15.1605 10.2015V12.0339L16.1408 12.015V11.5571L17.415 11.5325C17.7937 11.5252 18.1013 11.2316 18.1013 10.8774V9.86979C18.1013 9.5157 17.7937 9.23388 17.415 9.24119L17.4153 9.24135ZM16.141 10.1827V10.6405L16.9258 10.6254V10.1676L16.141 10.1827ZM15.1608 7.46653L14.0497 9.30638L15.1608 9.2849V7.46653ZM11.5361 7.52255L9.47715 7.56232V7.10336L11.5361 7.0636V7.52255Z" fill="#E9E9E9"/>
</svg>
