<svg width="604" height="573" viewBox="0 0 604 573" fill="none" xmlns="http://www.w3.org/2000/svg">
<g clip-path="url(#clip0_1:3)" filter="url(#filter0_i_1:3)">
<path fill-rule="evenodd" clip-rule="evenodd" d="M0 289.264C0.937825 289.592 0.216283 289.189 1.37996 290.031L9.82337 297.777C13.1912 300.9 16.1152 303.576 19.4897 306.706L114.161 395.53C120.683 401.512 126.691 407.101 133.209 413.075L195.06 471.159C196.699 472.746 198.056 473.926 199.748 475.462L247.219 519.757C253.72 525.743 259.779 531.295 266.272 537.295L304.155 572.573L407.818 473.011C410.889 470.006 414.12 467.39 417.201 464.399L445.118 437.174C448.08 434.301 451.115 430.889 454.283 428.351C461.224 422.791 467.171 416.175 473.316 410.218L501.512 383.257C504.802 380.065 507.631 377.284 510.912 374.075C517.223 367.902 523.084 362.169 529.425 356.024L585.82 302.108C588.845 299.144 602.753 286.308 604 283.948L565.748 248.113C559.17 242.001 552.979 236.368 546.387 230.282C540.057 224.438 534.009 218.311 527.635 212.465C521.02 206.399 514.917 200.687 508.277 194.628L460.804 150.343C457.832 147.609 454.019 144.508 451.539 141.62C447.912 137.395 418.433 110.872 413.3 106.085C411.551 104.454 410.389 102.803 408.626 101.183L299.5 0C291.347 7.49378 283.017 16.5831 275.655 23.2204C273.85 24.8475 272.491 25.7194 270.81 27.3781L242.901 54.6142C236.718 60.6091 230.304 66.3607 224.111 72.4003L195.889 99.9194C192.813 102.895 189.554 105.524 186.501 108.526C178.795 116.104 156.051 138.919 149.314 144.472C140.137 152.035 119.427 173.78 106.738 185.227C105.064 186.738 103.805 188.077 102.186 189.667L55.4748 234.677C49.1413 240.825 43.282 246.579 36.9733 252.737C31.5963 257.985 1.13771 285.581 0 289.264ZM9.28524 288.356C11.0757 290.95 15.5565 294.447 18.1671 296.866L110.309 382.846C113.465 385.742 116.2 388.845 119.386 391.743C127.543 399.161 150.3 419.53 156.529 425.984C169.333 439.25 184.371 451.683 197.78 464.497L239.324 503.315C242.517 506.246 245.222 509.31 248.391 512.222C254.796 518.105 260.732 523.59 267.122 529.486L294.62 555.354C297.134 557.661 301.613 562.305 304.155 563.834L408.37 463.613C410.178 461.982 411.527 461.116 413.208 459.451C425.152 447.623 437.045 435.681 449.309 424.217L489.941 385.119C491.533 383.573 493.192 382.522 494.795 380.977L585.769 293.308C588.223 290.913 593.088 286.723 594.719 284.271L493.687 189.787C490.544 186.897 487.8 183.763 484.613 180.887C478.278 175.172 472.469 169.699 466.195 163.913L360.293 64.7164C346.674 51.5575 333.067 39.9576 318.749 25.8987L299.846 8.78986C297.56 10.2143 284.753 23.17 281.758 26.0898L263.577 43.2852C257.449 49.2343 251.787 54.7826 245.673 60.7461L209.287 95.6958C206.106 98.8046 203.369 101.48 200.182 104.578L172.896 130.647C166.976 136.43 160.827 143.065 154.675 148.392C152.798 150.017 151.805 150.635 150.155 152.268L27.3298 270.438C24.1129 273.35 21.3526 276.277 18.2257 279.315C15.8041 281.668 10.8952 285.954 9.28524 288.356Z" fill="#0093DD"/>
<path fill-rule="evenodd" clip-rule="evenodd" d="M170.509 217.155L170.51 260.213L222.074 260.373C236.719 260.37 234.568 251.212 234.568 239.333C234.568 231.985 230.295 228.817 222.69 228.817L187.621 228.811L187.687 222.533C209.832 222.325 248.901 221.942 269.874 222.584L237.55 273.066C224.523 272.948 211.598 272.996 198.683 272.996C165.507 272.996 170.512 267.44 170.51 325.709C170.51 338.214 182.65 336.098 193.758 336.098L298.435 336.1L298.477 323.488L187.609 323.471L187.713 285.606L229.2 285.652C226.742 291.426 214.455 306.865 213.68 310.834L229.308 310.852C230.586 310.373 242.959 289.199 246.036 285.617L269.921 285.617L270.178 310.805L284.025 310.845L284.426 304.706C296.943 303.469 312.834 308.774 312.837 294.191L312.84 283.685C312.845 268.995 297.355 273.745 284.534 272.902L284.362 209.908L170.509 210.043V217.155ZM187.596 247.74L217.478 247.751L217.477 241.456L187.597 241.445L187.596 247.74ZM284.353 291.774L295.761 291.888L295.731 285.713L284.517 285.617L284.353 291.774ZM254.139 272.85L257.162 273.01L269.939 272.998L270.136 248.548L254.139 272.85Z" fill="#EF2C2C"/>
<path fill-rule="evenodd" clip-rule="evenodd" d="M125.471 195.622L125.358 374.403C135.577 372.817 147.388 369.603 157.803 367.543C216.744 355.886 273.923 355.17 330.199 377.271C339.777 381.032 348.758 384.915 357.983 388.852C366.021 392.284 378.104 397.302 387.196 399.125L387.326 361.156C369.214 357.346 342.115 342.843 332.664 340.508L332.652 370.91C326.025 369.242 318.623 366.111 311.461 364.109C258.048 349.172 210.986 351.196 157.065 361.495C149.143 363.008 140.985 365.552 133.422 366.727L133.417 200.609C152.751 194.967 159.171 191.94 181.264 188.376C218.081 182.435 254.423 183.706 289.982 194.211C304.299 198.441 321.371 205.248 332.598 212.173L332.672 243.777C346.246 247.591 371.415 261.805 387.3 264.455L387.318 226.477C376.829 224.3 366.421 219.497 357.129 215.765C348.145 212.157 336.893 207.82 328.68 203.621C310.344 194.246 290.96 187.078 268.191 182.828C232.088 176.091 193.374 178.44 157.54 186.933C146.663 189.511 133.355 193.805 125.474 195.622H125.471Z" fill="#0093DD"/>
<path fill-rule="evenodd" clip-rule="evenodd" d="M332.667 332.712C334.687 335.356 380.764 353.21 387.251 354.256L387.321 316.282C369.926 312.969 343.805 298.579 332.662 295.637L332.667 332.712Z" fill="#0093DD"/>
<path fill-rule="evenodd" clip-rule="evenodd" d="M332.667 288.634C347.049 292.805 371.785 306.73 387.23 309.294L387.324 271.293C378.757 269.726 367.501 264.962 359.727 261.73C354.099 259.391 337.088 251.788 332.67 250.668L332.667 288.634Z" fill="#0093DD"/>
<path fill-rule="evenodd" clip-rule="evenodd" d="M393.445 372.629C404.188 375.459 429.32 377.542 440.859 376.732L441.072 339.291C433.157 338.543 424.479 338.923 416.197 338.205C409.849 337.655 398.742 335.217 393.473 335.297L393.445 372.629Z" fill="#0093DD"/>
<path fill-rule="evenodd" clip-rule="evenodd" d="M393.434 328.946C403.514 331.763 429.955 333.934 440.95 333.061L441.059 295.609C432.761 295.006 424.615 295.297 416.203 294.553C409.534 293.964 399.063 291.624 393.554 291.598L393.434 328.946Z" fill="#0093DD"/>
<path fill-rule="evenodd" clip-rule="evenodd" d="M393.435 285.245C402.274 287.99 431.202 290.351 441.051 289.376L440.941 251.906C432.361 251.556 424.54 251.641 415.994 250.89C410.884 250.44 397.047 247.801 393.432 248.146L393.435 285.245Z" fill="#0093DD"/>
<path fill-rule="evenodd" clip-rule="evenodd" d="M449.12 318.732L449.126 350.57C470.769 351.122 481.147 350.091 500.814 346.005L500.954 314.198C481.392 318.035 470.03 318.947 449.12 318.732H449.12Z" fill="#0093DD"/>
<path fill-rule="evenodd" clip-rule="evenodd" d="M449.214 275.017L449.114 306.841C475.049 308.067 477.936 306.369 500.888 302.3L500.949 270.49C483.5 274.672 467.954 275.428 449.216 275.017H449.214Z" fill="#0093DD"/>
</g>
<defs>
<filter id="filter0_i_1:3" x="0" y="0" width="604" height="576.573" filterUnits="userSpaceOnUse" color-interpolation-filters="sRGB">
<feFlood flood-opacity="0" result="BackgroundImageFix"/>
<feBlend mode="normal" in="SourceGraphic" in2="BackgroundImageFix" result="shape"/>
<feColorMatrix in="SourceAlpha" type="matrix" values="0 0 0 0 0 0 0 0 0 0 0 0 0 0 0 0 0 0 127 0" result="hardAlpha"/>
<feOffset dy="4"/>
<feGaussianBlur stdDeviation="2"/>
<feComposite in2="hardAlpha" operator="arithmetic" k2="-1" k3="1"/>
<feColorMatrix type="matrix" values="0 0 0 0 0 0 0 0 0 0 0 0 0 0 0 0 0 0 0.25 0"/>
<feBlend mode="normal" in2="shape" result="effect1_innerShadow_1:3"/>
</filter>
<clipPath id="clip0_1:3">
<rect width="604" height="572.573" fill="white"/>
</clipPath>
</defs>
</svg>
